<svg width="80" height="80" viewBox="0 0 80 80" fill="none" xmlns="http://www.w3.org/2000/svg">
<g clip-path="url(#clip0_1321_1052)">
<path d="M40 80C50.6087 80 60.7828 75.7857 68.2843 68.2843C75.7857 60.7828 80 50.6087 80 40C80 29.3913 75.7857 19.2172 68.2843 11.7157C60.7828 4.21427 50.6087 0 40 0C29.3913 0 19.2172 4.21427 11.7157 11.7157C4.21427 19.2172 0 29.3913 0 40C0 50.6087 4.21427 60.7828 11.7157 68.2843C19.2172 75.7857 29.3913 80 40 80ZM56.832 32.832L38.832 50.832C38.4604 51.2045 38.019 51.5 37.5331 51.7017C37.0471 51.9034 36.5261 52.0071 36 52.0071C35.4739 52.0071 34.9529 51.9034 34.4669 51.7017C33.981 51.5 33.5396 51.2045 33.168 50.832L25.168 42.832C24.4169 42.0809 23.9949 41.0622 23.9949 40C23.9949 38.9378 24.4169 37.9191 25.168 37.168C25.9191 36.4169 26.9378 35.9949 28 35.9949C29.0622 35.9949 30.0809 36.4169 30.832 37.168L36 42.344L51.168 27.168C51.5399 26.7961 51.9814 26.5011 52.4673 26.2998C52.9532 26.0985 53.474 25.9949 54 25.9949C54.526 25.9949 55.0468 26.0985 55.5327 26.2998C56.0186 26.5011 56.4601 26.7961 56.832 27.168C57.2039 27.5399 57.4989 27.9814 57.7002 28.4673C57.9015 28.9532 58.0051 29.474 58.0051 30C58.0051 30.526 57.9015 31.0468 57.7002 31.5327C57.4989 32.0186 57.2039 32.4601 56.832 32.832Z" fill="#13A89D"/>
</g>
<defs>
<clipPath id="clip0_1321_1052">
<rect width="80" height="80" fill="white"/>
</clipPath>
</defs>
</svg>
