<svg width="85" height="85" viewBox="0 0 85 85" fill="none" xmlns="http://www.w3.org/2000/svg">
<g clip-path="url(#clip0_1322_205)">
<path d="M49.5832 28.3337H16.5276C15.9014 28.3337 15.3009 28.0849 14.8581 27.6421C14.4153 27.1993 14.1665 26.5988 14.1665 25.9725V16.5281C14.1665 15.9019 14.4153 15.3013 14.8581 14.8585C15.3009 14.4158 15.9014 14.167 16.5276 14.167H49.5832C50.2094 14.167 50.8099 14.4158 51.2527 14.8585C51.6955 15.3013 51.9443 15.9019 51.9443 16.5281V25.9725C51.9443 26.5988 51.6955 27.1993 51.2527 27.6421C50.8099 28.0849 50.2094 28.3337 49.5832 28.3337ZM18.8887 23.6114H47.2221V18.7475H18.8887V23.6114Z" fill="#13A89D"/>
<path d="M49.5832 33.2441H16.5276C15.9014 33.2441 15.3009 33.4929 14.8581 33.9357C14.4153 34.3785 14.1665 34.979 14.1665 35.6053V44.8608C14.1665 45.487 14.4153 46.0876 14.8581 46.5304C15.3009 46.9732 15.9014 47.2219 16.5276 47.2219H43.3498L51.9443 38.4858V35.6053C51.9443 34.979 51.6955 34.3785 51.2527 33.9357C50.8099 33.4929 50.2094 33.2441 49.5832 33.2441ZM47.2221 42.4997H18.8887V37.7775H47.2221V42.4997Z" fill="#13A89D"/>
<path d="M26.1138 74.399V74.2574L26.8694 70.9754H9.44439V9.44488H56.6666V33.6463L61.3888 29.1838V7.08377C61.3888 6.45756 61.1401 5.857 60.6973 5.41421C60.2545 4.97142 59.6539 4.72266 59.0277 4.72266H7.08328C6.45707 4.72266 5.85652 4.97142 5.41372 5.41421C4.97093 5.857 4.72217 6.45756 4.72217 7.08377V73.1949C4.72217 73.8211 4.97093 74.4216 5.41372 74.8644C5.85652 75.3072 6.45707 75.556 7.08328 75.556H25.9722C25.9916 75.1674 26.039 74.7808 26.1138 74.399Z" fill="#13A89D"/>
<path d="M51.9442 45.2627L50.1025 47.128C50.5595 47.0338 50.9782 46.8063 51.306 46.4744C51.6338 46.1424 51.8558 45.7208 51.9442 45.2627Z" fill="#13A89D"/>
<path d="M14.1665 63.6082C14.1665 64.2344 14.4153 64.835 14.8581 65.2778C15.3009 65.7206 15.9014 65.9693 16.5276 65.9693H27.9554L28.6637 62.8999L28.9707 61.6013V61.4832H18.8887V56.6666H33.8582L38.5804 51.9443H16.5276C15.9014 51.9443 15.3009 52.1931 14.8581 52.6359C14.4153 53.0787 14.1665 53.6792 14.1665 54.3054V63.6082Z" fill="#13A89D"/>
<path d="M79.0735 39.3602L71.1165 31.4032C70.7634 31.0491 70.3439 30.7682 69.882 30.5765C69.4201 30.3848 68.9249 30.2861 68.4249 30.2861C67.9248 30.2861 67.4296 30.3848 66.9677 30.5765C66.5058 30.7682 66.0863 31.0491 65.7332 31.4032L33.3624 63.9629L30.6943 75.3199C30.5944 75.8098 30.5922 76.3147 30.6877 76.8055C30.7832 77.2963 30.9746 77.7635 31.251 78.1802C31.5274 78.5969 31.8832 78.955 32.2982 79.234C32.7132 79.513 33.1791 79.7074 33.6693 79.806C33.9127 79.8304 34.1579 79.8304 34.4012 79.806C34.6905 79.8531 34.9856 79.8531 35.2749 79.806L46.7262 77.2796L79.0735 44.8616C79.4268 44.5104 79.7073 44.0929 79.8987 43.633C80.09 43.1731 80.1885 42.6798 80.1885 42.1817C80.1885 41.6835 80.09 41.1903 79.8987 40.7304C79.7073 40.2705 79.4268 39.8529 79.0735 39.5018V39.3602ZM44.3179 72.9824L35.6762 74.8949L37.7776 66.3241L62.0499 41.7921L68.7082 48.4504L44.3179 72.9824ZM71.3762 45.7824L64.7179 39.1241L68.4721 35.4171L75.1776 42.1227L71.3762 45.7824Z" fill="#13A89D"/>
</g>
<defs>
<clipPath id="clip0_1322_205">
<rect width="85" height="85" fill="white"/>
</clipPath>
</defs>
</svg>
