<svg width="106" height="104" viewBox="0 0 106 104" fill="none" xmlns="http://www.w3.org/2000/svg">
<path d="M53 0C46.0692 0 40.7692 5.2 40.7692 12V36C40.7692 42.8 46.0692 48 53 48H77.4615L93.7692 64V48C100.7 48 106 42.8 106 36V12C106 5.2 100.7 0 93.7692 0H53ZM70.0742 12H77.0783L83.9602 36H77.8448L76.1855 30H70.0701L68.5453 36H63.1923L70.0742 12ZM73.3846 16C72.9769 17.6 72.5203 19.552 72.1085 20.752L70.967 26H75.8063L74.6566 20.748C73.8453 19.552 73.3846 17.6 73.3846 16ZM12.2308 40C5.3 40 0 45.2 0 52V76C0 82.8 5.3 88 12.2308 88V104L28.5385 88H53C59.9308 88 65.2308 82.8 65.2308 76V52H53C45.2538 52 39.114 46.8 37.0755 40H12.2308ZM30.9602 51.624C37.8909 51.624 41.1525 57.224 41.1525 63.624C41.1525 69.224 39.1915 72.776 35.9299 74.376C37.5607 75.176 39.4932 75.6 41.5316 76L40.0068 80C37.153 79.2 34.1931 77.952 31.3393 76.748C30.9316 76.348 30.2182 76.376 29.8105 76.376C24.9182 75.976 20.3846 72 20.3846 64C20.3846 57.2 24.4371 51.624 30.9602 51.624ZM30.9602 56C27.6986 56 26.1168 59.6 26.1168 64C26.1168 68.8 27.6986 72 30.9602 72C34.2217 72 35.9258 68.4 35.9258 64C35.9258 59.6 34.2217 56 30.9602 56Z" fill="#13A89D"/>
</svg>
