<svg width="95" height="102" viewBox="0 0 95 102" fill="none" xmlns="http://www.w3.org/2000/svg">
<path opacity="0.5" d="M27.7083 25.3512C26.6585 25.3512 25.6517 24.906 24.9094 24.1137C24.167 23.3213 23.75 22.2466 23.75 21.126V12.6756C23.75 11.555 24.167 10.4803 24.9094 9.68797C25.6517 8.89559 26.6585 8.45044 27.7083 8.45044C28.7581 8.45044 29.765 8.89559 30.5073 9.68797C31.2496 10.4803 31.6667 11.555 31.6667 12.6756V21.126C31.6667 22.2459 31.2502 23.3199 30.5087 24.1122C29.7672 24.9044 28.7575 25.3501 27.7083 25.3512ZM67.2917 25.3512C66.2419 25.3512 65.235 24.906 64.4927 24.1137C63.7504 23.3213 63.3333 22.2466 63.3333 21.126V12.6756C63.3333 11.555 63.7504 10.4803 64.4927 9.68797C65.235 8.89559 66.2419 8.45044 67.2917 8.45044C68.3415 8.45044 69.3483 8.89559 70.0906 9.68797C70.833 10.4803 71.25 11.555 71.25 12.6756V21.126C71.25 22.2459 70.8335 23.3199 70.092 24.1122C69.3506 24.9044 68.3408 25.3501 67.2917 25.3512Z" fill="#13A89D"/>
<path d="M75.2082 16.9006H71.2498V21.1258C71.2498 22.2464 70.8328 23.3211 70.0905 24.1135C69.3481 24.9059 68.3413 25.351 67.2915 25.351C66.2417 25.351 65.2349 24.9059 64.4925 24.1135C63.7502 23.3211 63.3332 22.2464 63.3332 21.1258V16.9006H31.6665V21.1258C31.6665 22.2464 31.2495 23.3211 30.5071 24.1135C29.7648 24.9059 28.758 25.351 27.7082 25.351C26.6584 25.351 25.6515 24.9059 24.9092 24.1135C24.1669 23.3211 23.7498 22.2464 23.7498 21.1258V16.9006H19.7915C16.6421 16.9006 13.6216 18.2361 11.3946 20.6132C9.16762 22.9904 7.9165 26.2144 7.9165 29.5762V38.0266H87.0832V29.5762C87.0832 26.2144 85.8321 22.9904 83.6051 20.6132C81.3781 18.2361 78.3576 16.9006 75.2082 16.9006Z" fill="#13A89D"/>
<path d="M27.7083 59.1525C29.8945 59.1525 31.6667 57.2608 31.6667 54.9273C31.6667 52.5938 29.8945 50.7021 27.7083 50.7021C25.5222 50.7021 23.75 52.5938 23.75 54.9273C23.75 57.2608 25.5222 59.1525 27.7083 59.1525Z" fill="#13A89D"/>
<path d="M27.7083 76.0534C29.8945 76.0534 31.6667 74.1617 31.6667 71.8282C31.6667 69.4947 29.8945 67.603 27.7083 67.603C25.5222 67.603 23.75 69.4947 23.75 71.8282C23.75 74.1617 25.5222 76.0534 27.7083 76.0534Z" fill="#13A89D"/>
<path d="M47.4998 59.1525C49.686 59.1525 51.4582 57.2608 51.4582 54.9273C51.4582 52.5938 49.686 50.7021 47.4998 50.7021C45.3137 50.7021 43.5415 52.5938 43.5415 54.9273C43.5415 57.2608 45.3137 59.1525 47.4998 59.1525Z" fill="#13A89D"/>
<path d="M47.4998 76.0534C49.686 76.0534 51.4582 74.1617 51.4582 71.8282C51.4582 69.4947 49.686 67.603 47.4998 67.603C45.3137 67.603 43.5415 69.4947 43.5415 71.8282C43.5415 74.1617 45.3137 76.0534 47.4998 76.0534Z" fill="#13A89D"/>
<path d="M67.2918 59.1525C69.478 59.1525 71.2502 57.2608 71.2502 54.9273C71.2502 52.5938 69.478 50.7021 67.2918 50.7021C65.1057 50.7021 63.3335 52.5938 63.3335 54.9273C63.3335 57.2608 65.1057 59.1525 67.2918 59.1525Z" fill="#13A89D"/>
<path d="M67.2918 76.0534C69.478 76.0534 71.2502 74.1617 71.2502 71.8282C71.2502 69.4947 69.478 67.603 67.2918 67.603C65.1057 67.603 63.3335 69.4947 63.3335 71.8282C63.3335 74.1617 65.1057 76.0534 67.2918 76.0534Z" fill="#13A89D"/>
<path opacity="0.5" d="M7.9165 38.0266V80.2785C7.9165 83.6403 9.16762 86.8643 11.3946 89.2415C13.6216 91.6186 16.6421 92.954 19.7915 92.954H75.2082C78.3576 92.954 81.3781 91.6186 83.6051 89.2415C85.8321 86.8643 87.0832 83.6403 87.0832 80.2785V38.0266H7.9165ZM27.7082 76.0533C26.6584 76.0533 25.6515 75.6081 24.9092 74.8158C24.1669 74.0234 23.7498 72.9487 23.7498 71.8281C23.7498 70.7075 24.1669 69.6328 24.9092 68.8404C25.6515 68.0481 26.6584 67.6029 27.7082 67.6029C28.758 67.6029 29.7648 68.0481 30.5071 68.8404C31.2495 69.6328 31.6665 70.7075 31.6665 71.8281C31.6665 72.9487 31.2495 74.0234 30.5071 74.8158C29.7648 75.6081 28.758 76.0533 27.7082 76.0533ZM27.7082 59.1525C26.6584 59.1525 25.6515 58.7074 24.9092 57.915C24.1669 57.1226 23.7498 56.048 23.7498 54.9274C23.7498 53.8068 24.1669 52.7321 24.9092 51.9397C25.6515 51.1473 26.6584 50.7022 27.7082 50.7022C28.758 50.7022 29.7648 51.1473 30.5071 51.9397C31.2495 52.7321 31.6665 53.8068 31.6665 54.9274C31.6665 56.048 31.2495 57.1226 30.5071 57.915C29.7648 58.7074 28.758 59.1525 27.7082 59.1525ZM47.4998 76.0533C46.45 76.0533 45.4432 75.6081 44.7009 74.8158C43.9585 74.0234 43.5415 72.9487 43.5415 71.8281C43.5415 70.7075 43.9585 69.6328 44.7009 68.8404C45.4432 68.0481 46.45 67.6029 47.4998 67.6029C48.5497 67.6029 49.5565 68.0481 50.2988 68.8404C51.0411 69.6328 51.4582 70.7075 51.4582 71.8281C51.4582 72.9487 51.0411 74.0234 50.2988 74.8158C49.5565 75.6081 48.5497 76.0533 47.4998 76.0533ZM47.4998 59.1525C46.45 59.1525 45.4432 58.7074 44.7009 57.915C43.9585 57.1226 43.5415 56.048 43.5415 54.9274C43.5415 53.8068 43.9585 52.7321 44.7009 51.9397C45.4432 51.1473 46.45 50.7022 47.4998 50.7022C48.5497 50.7022 49.5565 51.1473 50.2988 51.9397C51.0411 52.7321 51.4582 53.8068 51.4582 54.9274C51.4582 56.048 51.0411 57.1226 50.2988 57.915C49.5565 58.7074 48.5497 59.1525 47.4998 59.1525ZM67.2915 76.0533C66.2417 76.0533 65.2349 75.6081 64.4925 74.8158C63.7502 74.0234 63.3332 72.9487 63.3332 71.8281C63.3332 70.7075 63.7502 69.6328 64.4925 68.8404C65.2349 68.0481 66.2417 67.6029 67.2915 67.6029C68.3413 67.6029 69.3481 68.0481 70.0905 68.8404C70.8328 69.6328 71.2498 70.7075 71.2498 71.8281C71.2498 72.9487 70.8328 74.0234 70.0905 74.8158C69.3481 75.6081 68.3413 76.0533 67.2915 76.0533ZM67.2915 59.1525C66.2417 59.1525 65.2349 58.7074 64.4925 57.915C63.7502 57.1226 63.3332 56.048 63.3332 54.9274C63.3332 53.8068 63.7502 52.7321 64.4925 51.9397C65.2349 51.1473 66.2417 50.7022 67.2915 50.7022C68.3413 50.7022 69.3481 51.1473 70.0905 51.9397C70.8328 52.7321 71.2498 53.8068 71.2498 54.9274C71.2498 56.048 70.8328 57.1226 70.0905 57.915C69.3481 58.7074 68.3413 59.1525 67.2915 59.1525Z" fill="#13A89D"/>
</svg>
